Romanii.Au.Talent.S02E01.720p.HDTV.x264-GBL (Romania\\\\\\\'s got talent)

air date: 17/02/2012
rel date: 18/02/2012

CRF 19 preset slow

Audio ROMANIAN
ID                                       : 2
Format                                   : AC-3
Format/Info                              : Audio Coding 3
Mode extension                           : CM (complete main)
Codec ID                                 : A_AC3
Duration                                 : 1h 45mn
Bit rate mode                            : Constant
Bit rate                                 : 384 Kbps
Channel(s)                               : 2 channels
Channel positions                        : Front: L R
Sampling rate                            : 48.0 KHz
Bit depth                                : 16 bits
Compression mode                         : Lossy
Delay relative to video                  : 12ms
Stream size                              : 291 MiB (8%)
Default                                  : Yes
Forced                                   : No

Format                                   : Matroska
Format version                           : Version 2
File size                                : 3.51 GiB
Duration                                 : 1h 45mn
Overall bit rate                         : 4 743 Kbps

Video
ID                                       : 1
Format                                   : AVC
Format/Info                              : Advanced Video Codec
Format profile                           : High@L4.1
Format settings, CABAC                   : Yes
Format settings, ReFrames                : 5 frames
Codec ID                                 : V_MPEG4/ISO/AVC
Duration                                 : 1h 45mn
Bit rate                                 : 4 264 Kbps
Width                                    : 1 280 pixels
Height                                   : 720 pixels
Display aspect ratio                     : 16:9
Frame rate                               : 25.000 fps
Color space                              : YUV
Chroma subsampling                       : 4:2:0
Bit depth                                : 8 bits
Scan type                                : Progressive
Bits/(Pixel*Frame)                       : 0.185
Stream size                              : 3.15 GiB (90%)
Writing library                          : x264 core 120 r2164 da19765